inDegrees=no
num_controls=7
num_derivatives=13
num_iterations=56
num_multipliers=7
num_parameters=0
num_slacks=7
num_states=26
objective=0.449986
objective_accelerations=0.044718
objective_balance=0.002435
objective_effort=0.021508
objective_height=0.375742
objective_ligament=0.005583
solver_duration=756.016910
status=Solve_Succeeded
success=true
DataType=double
version=3
OpenSimVersion=4.5
endheader
time	/jointset/ground_pelvis/pelvis_tilt/value	/jointset/ground_pelvis/pelvis_tx/value	/jointset/ground_pelvis/pelvis_ty/value	/jointset/hip_l/hip_flexion_l/value	/jointset/hip_l/hip_adduction_l/value	/jointset/hip_l/hip_rotation_l/value	/jointset/back/lumbar_extension/value	/jointset/patellofemoral_l/patellar_flexion_l/value	/jointset/knee_l/knee_flexion_l/value	/jointset/knee_l/knee_adduction_l/value	/jointset/knee_l/knee_rotation_l/value	/jointset/ankle_l/ankle_angle_l/value	/jointset/subtalar_l/subtalar_angle_l/value	/jointset/ground_pelvis/pelvis_tilt/speed	/jointset/ground_pelvis/pelvis_tx/speed	/jointset/ground_pelvis/pelvis_ty/speed	/jointset/hip_l/hip_flexion_l/speed	/jointset/hip_l/hip_adduction_l/speed	/jointset/hip_l/hip_rotation_l/speed	/jointset/back/lumbar_extension/speed	/jointset/patellofemoral_l/patellar_flexion_l/speed	/jointset/knee_l/knee_flexion_l/speed	/jointset/knee_l/knee_adduction_l/speed	/jointset/knee_l/knee_rotation_l/speed	/jointset/ankle_l/ankle_angle_l/speed	/jointset/subtalar_l/subtalar_angle_l/speed	/forceset/tau_hip_flexion_l	/forceset/tau_hip_adduction_l	/forceset/tau_hip_rotation_l	/forceset/tau_knee_flexion_l	/forceset/tau_ankle_angle_l	/forceset/tau_subtalar_angle_l	/forceset/tau_lumbar_extension	lambda_cid13_p0	lambda_cid13_p1	lambda_cid13_p2	lambda_cid13_p3	lambda_cid13_p4	lambda_cid13_p5	lambda_cid14_p0	/jointset/ground_pelvis/pelvis_tilt/accel	/jointset/ground_pelvis/pelvis_tx/accel	/jointset/ground_pelvis/pelvis_ty/accel	/jointset/hip_l/hip_flexion_l/accel	/jointset/hip_l/hip_adduction_l/accel	/jointset/hip_l/hip_rotation_l/accel	/jointset/back/lumbar_extension/accel	/jointset/patellofemoral_l/patellar_flexion_l/accel	/jointset/knee_l/knee_flexion_l/accel	/jointset/knee_l/knee_adduction_l/accel	/jointset/knee_l/knee_rotation_l/accel	/jointset/ankle_l/ankle_angle_l/accel	/jointset/subtalar_l/subtalar_angle_l/accel	gamma_cid13_p0	gamma_cid13_p1	gamma_cid13_p2	gamma_cid13_p3	gamma_cid13_p4	gamma_cid13_p5	gamma_cid14_p0
1.5	-0.1840124864488306	0.04616832642839631	0.7903958563791577	0.8071582864856557	-0.4455010800550526	-0.2118057937944246	-0.2020568275982904	0.809798938675065	0.8097989386749388	-0.1443112777899812	-0.1386905847061022	0.2459759461529488	0.0381767403128461	0.2025487266827782	0.1255035093642243	0.4261283015218791	-1.661624128112918	0.2504578448472792	-0.7158537071099349	0.3423406669038076	-2.010836577559409	-2.010836577559996	-0.07853250600683633	0.1392264141592758	-0.7083796528294742	-0.1125895988640181	-0.07975095100007676	0.04516902279974273	-0.01035074154983914	-0.2595131565999346	0.02459360006267755	0.01248599751147599	0.1028262037992417	-25.07419283014394	-2.900861487110228	2.260838370379817	-1.912828776088555	-524.3883148414276	-50.75327652657887	-24.59811626353597	0.2046103145389773	0.3396614485027625	-0.4534427059375379	-0.7523777577897193	0.62243837949989	-0.08945402884171041	0.9188135504038629	-1.432450686475006	-1.43245068647497	0.006396233024582372	0.1826244537527782	-0.6945168741603359	0.4081430866297595	3.169207551704184e-07	7.844146871557433e-07	-1.683925334560645e-06	7.544463752408984e-08	4.047729252852293e-07	7.939682867814506e-07	2.841078873265914e-07
1.51	-0.1819766487524884	0.04744023795899611	0.7946335370307412	0.7905060080135061	-0.4429663827258809	-0.2189674938521448	-0.1985882982498302	0.789621600782404	0.7896216007823488	-0.1450981958602553	-0.1372901233529848	0.2388582461559548	0.03707026950984323	0.204594663079681	0.1288637680705471	0.4213128129792789	-1.668582399856375	0.2564605304343083	-0.7164080590154867	0.3513178471616412	-2.024318327090888	-2.024318327091149	-0.07881516895918574	0.1408348823641677	-0.7150376138175681	-0.108669150295779	-0.07680573385813118	0.04415394730938671	-0.01003806839019932	-0.2553287123454505	0.02583398605007398	0.01194312622443102	0.1000955650043241	-24.53107532959853	-2.800721777702512	2.291171762515321	-2.072166916404808	-521.4161099186227	-50.60361426968851	-25.50534744584518	0.2009785143246893	0.3319761530749569	-0.5097693286070473	-0.6301559720878454	0.5861562922975444	-0.02641528911656327	0.880066919422004	-1.259193422812722	-1.2591934227638	-0.04012501704338439	0.1450182627636973	-0.632987684723487	0.3893372494033904	3.286744173955994e-07	9.110379573519981e-07	-1.617997708703124e-06	9.948536269644106e-08	4.180307771261316e-07	8.657394761182159e-07	2.860775595708235e-07
1.52	-0.1799210730497685	0.04874530569093417	0.7988202293168618	0.7737916260060301	-0.4403722640120398	-0.2261323353324518	-0.1950314177676019	0.7693188141271589	0.7693188141271935	-0.1458868460516522	-0.1358745652659781	0.2316776561543628	0.03600407149401915	0.2064963279589296	0.1321347496318755	0.4159306284292626	-1.674044835178417	0.2623421217810394	-0.7164819916292215	0.3600108936574481	-2.035926330075502	-2.035926330075437	-0.07887893021868035	0.1422457609252988	-0.720957653749244	-0.1045350414282437	-0.0738605167161166	0.04313887181910291	-0.009725395231060684	-0.2511442680908979	0.02707437203750674	0.01140025493751784	0.09736492620943245	-23.99084252972096	-2.703179589473389	2.32546407334937	-2.260225713601991	-518.5011272841951	-50.50176534498884	-26.41299529880153	0.1757560110080564	0.3218060195039346	-0.566781907420755	-0.4532104735066755	0.5982195314403138	0.006629829521545875	0.8619867979984873	-1.057701377101972	-1.057701377102193	0.05017657159553897	0.1431065250005256	-0.546932662876676	0.4508751464889706	3.391966291058145e-07	1.048811764272104e-06	-1.562504955788125e-06	1.264197518970588e-07	4.298749139742858e-07	9.389024057638436e-07	2.900595241305441e-07
1.53	-0.1778472959760592	0.05008247030829308	0.8029503685953633	0.7570301503913615	-0.4377200152943287	-0.2332957158599966	-0.1913894520074206	0.7489090628011559	0.7489090628012123	-0.1466752118862556	-0.13444603027142	0.2244412357460426	0.03497998209794432	0.2082196010154698	0.1352659410500102	0.4100108813215006	-1.677979848445426	0.2680826075536441	-0.7160942389737763	0.3682988561575915	-2.045728886579974	-2.045728886579721	-0.07878533852646126	0.143446965845707	-0.7262303986290584	-0.1002703651333354	-0.07069934147154983	0.04204318099449189	-0.00941864796769175	-0.247180101965241	0.02825626808385452	0.0107241167441488	0.09441666403806231	-23.49278820208336	-2.530851485046806	2.336955050733823	-2.234445676158119	-515.7681182256582	-50.35159708208789	-27.32087441726384	0.1646977429631609	0.303975283459722	-0.6174338541272905	-0.3230682946775915	0.5583011583858936	0.0701183949538943	0.7996906427822539	-0.8973353968910402	-0.8973353968628386	-0.009590147507834063	0.1062090366293769	-0.502989850599027	0.4161056724935215	3.484104246438783e-07	1.1984330164613e-06	-1.518099255374556e-06	1.564286591277097e-07	4.402169786426452e-07	1.013544059487637e-06	2.961795492754712e-07
